<?xml version="1.0" encoding="UTF-8"?>
<!DOCTYPE svg PUBLIC "-//W3C//DTD SVG 1.1//EN" "http://www.w3.org/Graphics/SVG/1.1/DTD/svg11.dtd">
<!-- Creator: CorelDRAW X7 -->
<svg xmlns="http://www.w3.org/2000/svg" xml:space="preserve" width="123mm" height="46mm" version="1.1" style="shape-rendering:geometricPrecision; text-rendering:geometricPrecision; image-rendering:optimizeQuality; fill-rule:evenodd; clip-rule:evenodd"
viewBox="0 0 12300 4600"
 xmlns:xlink="http://www.w3.org/1999/xlink">
 <defs>
  <style type="text/css">
   <![CDATA[
    .fil1 {fill:#FEFEFE}
    .fil2 {fill:#2B2A29}
    .fil0 {fill:#2B2A29;fill-rule:nonzero}
   ]]>
  </style>
 </defs>
 <g id="Layer_x0020_1">
  <metadata id="CorelCorpID_0Corel-Layer"/>
  <g id="_914708512">
   <path class="fil0" d="M3595 2397l-278 1311 564 0c271,0 455,-118 510,-375 31,-151 -20,-249 -122,-300 102,-55 180,-146 207,-274 50,-234 -69,-362 -324,-362l-557 0zm235 525l60 -284 148 0c80,0 113,49 92,142 -18,89 -72,142 -152,142l-148 0zm-116 544l63 -299 153 0c97,0 139,40 117,150 -24,105 -84,149 -181,149l-152 0z"/>
   <path id="1" class="fil0" d="M5154 2752l-148 687c-33,23 -69,36 -100,36 -62,0 -80,-33 -69,-87l136 -636c0,0 -54,-14 -163,-14 -110,0 -168,14 -168,14l-140 656c-35,160 22,322 206,322 92,0 178,-18 255,-75l-4 20c-46,248 -159,244 -268,244 -104,0 -187,-42 -187,-42 -64,60 -104,130 -124,212 0,0 127,74 331,74 288,0 497,-142 576,-488l196 -923c0,0 -56,-14 -164,-14 -105,0 -165,14 -165,14z"/>
   <path id="2" class="fil0" d="M5993 2982l177 0c0,0 21,-48 36,-117 16,-73 13,-115 13,-115l-177 0 46 -213c-111,-11 -250,6 -343,46l-34 167 -126 0c0,0 -22,42 -38,117 -15,69 -11,115 -11,115l126 0 -82 382c-57,264 22,362 280,362 67,0 133,-7 195,-22 0,0 22,-38 34,-102 19,-87 2,-129 2,-129 0,0 -40,9 -83,9 -79,0 -117,-25 -95,-124l80 -376z"/>
   <path id="3" class="fil0" d="M7022 3317c0,0 34,-84 62,-208 54,-262 -86,-390 -319,-390 -273,0 -461,137 -534,476 -74,347 50,531 359,531 228,0 339,-89 339,-89 14,-84 -15,-178 -55,-218 0,0 -84,43 -187,43 -93,0 -157,-31 -139,-145l474 0zm-224 -243c-4,19 -8,37 -13,55l-200 0c38,-147 93,-180 149,-180 62,0 78,53 64,125z"/>
   <path id="4" class="fil0" d="M7544 3251l173 0c284,0 470,-124 528,-399 58,-275 -62,-455 -346,-455l-519 0 -275 1295c0,0 60,16 172,16 107,0 174,-16 174,-16l93 -441zm57 -262l71 -331 122 0c91,0 132,52 109,165 -24,111 -89,166 -180,166l-122 0z"/>
   <path id="5" class="fil0" d="M8931 2750l-31 73c-32,-69 -94,-104 -203,-104 -217,0 -354,106 -439,465 -89,371 23,542 235,542 109,0 184,-42 245,-105l0 72c0,0 50,15 144,15 93,0 159,-15 159,-15l200 -941c0,0 -56,-14 -157,-14 -102,0 -153,12 -153,12l0 0zm-92 337l-59 277c-18,62 -60,111 -123,111 -84,0 -108,-56 -66,-246 45,-202 89,-258 173,-258 62,0 82,51 75,116l0 0z"/>
   <path id="6" class="fil0" d="M10184 3020c42,-193 -25,-301 -209,-301 -93,0 -184,46 -261,102l0 -69c0,0 -40,-14 -145,-14 -110,0 -168,14 -168,14l-200 941c0,0 55,15 162,15 106,0 167,-15 167,-15l146 -686c35,-24 69,-36 100,-36 62,0 80,32 69,89l-134 633c0,0 51,15 162,15 109,0 169,-15 169,-15l142 -673z"/>
   <path id="7" class="fil0" d="M11012 2359l-94 453c-42,-58 -106,-93 -202,-93 -217,0 -364,113 -443,485 -78,371 26,522 230,522 109,0 193,-42 255,-105l0 72c0,0 49,15 143,15 93,0 159,-15 159,-15l284 -1336c0,0 -62,-14 -162,-14 -102,0 -170,16 -170,16zm-154 728l-59 277c-18,62 -60,111 -123,111 -84,0 -110,-60 -68,-246 46,-202 91,-258 175,-258 62,0 82,51 75,116l0 0z"/>
   <path id="8" class="fil0" d="M11974 2750l-31 73c-33,-69 -95,-104 -204,-104 -217,0 -353,106 -439,465 -89,371 24,542 235,542 109,0 184,-42 246,-105l0 72c0,0 49,15 144,15 92,0 158,-15 158,-15l200 -941c0,0 -56,-14 -156,-14 -102,0 -153,12 -153,12l0 0zm-93 337l-58 277c-19,62 -61,111 -124,111 -84,0 -108,-56 -66,-246 46,-202 89,-258 173,-258 62,0 82,51 75,116l0 0z"/>
   <g>
    <path class="fil1" d="M918 1513c-491,209 -1288,1366 -260,2135 201,151 577,180 871,84 390,-128 968,-602 1106,-1087 106,-63 163,-162 210,-292 55,-147 97,-334 114,-493 17,-160 8,-291 -19,-414 -28,-122 -74,-234 -139,-334 -64,-100 -147,-188 -226,-259 -80,-71 -157,-126 -233,-166 -77,-39 -153,-64 -228,-73 -75,-10 -150,-4 -244,11 -95,14 -208,36 -325,103 -116,66 -237,177 -315,327 -54,103 -88,224 -96,362 -48,22 -116,53 -216,96z"/>
    <path class="fil2" d="M1527 4005c794,2 1431,56 1431,122 0,68 -659,123 -1471,123 -812,0 -1470,-55 -1470,-123 0,-25 90,-48 245,-67 12,8 25,15 38,22 143,71 315,43 431,-60 62,-3 127,-6 195,-8 46,68 106,125 180,154 154,60 334,-5 414,-149 2,-5 5,-9 7,-14zm-811 -1673c-1,96 3,210 51,327 68,167 274,347 440,411 118,46 269,62 375,-3 105,-65 164,-211 104,-343 -51,-114 -190,-217 -332,-279 -14,-62 -35,-123 -60,-178 -73,-157 -183,-262 -284,-283 -100,-22 -191,38 -239,107 -48,69 -54,146 -55,241zm1776 -1442c-8,9 -10,15 -9,25 1,10 5,25 14,35 8,10 21,16 35,17 14,0 29,-5 39,-16 10,-10 15,-25 7,-41 -9,-15 -31,-32 -48,-35 -17,-3 -31,7 -38,15zm-807 248c-8,8 -10,15 -9,25 1,10 5,25 13,35 9,11 22,17 36,17 14,1 29,-5 39,-15 11,-11 16,-26 7,-42 -8,-16 -30,-32 -48,-36 -17,-3 -31,8 -38,16zm627 -392c-37,60 -69,144 -64,218 6,88 64,161 139,209 74,47 166,69 236,38 41,-19 75,-56 98,-101 9,12 17,25 25,37 31,47 56,97 78,149 21,52 39,107 52,165 13,58 22,117 25,181 3,65 1,134 -7,211 -8,77 -23,162 -42,244 -19,83 -42,164 -68,233 -25,68 -52,127 -88,174 -34,45 -77,80 -134,106 -63,27 -144,44 -235,46 -88,3 -185,-8 -283,-35 -107,-30 -216,-78 -317,-143 -94,-60 -181,-135 -254,-224 -71,-88 -129,-189 -173,-295 -48,-116 -79,-236 -93,-348 -13,-103 -11,-197 2,-282 14,-90 41,-172 79,-243 1,-3 3,-6 4,-9 13,-3 24,-7 34,-11 49,-22 69,-64 116,-123 33,-40 78,-88 104,-139 10,-7 21,-13 32,-19 53,-31 106,-51 156,-66 51,-14 100,-23 145,-30l0 0c44,-7 84,-11 123,-13 36,-2 70,-2 104,3 34,4 68,11 101,22 35,11 70,26 105,44l0 1zm127 109c-17,23 -35,63 -33,97 2,34 25,62 54,81 29,18 64,26 91,14 27,-12 45,-44 51,-74 0,-1 0,-3 0,-4l0 -1 0 0 1 -1 0 0 0 -2 0 0 0 -1 0 0 0 -1 0 0 0 -2 0 0 0 -1 0 0 0 -1 0 -1 1 -1 0 0 0 -1 0 0 0 -2 0 0 0 -1 0 0 0 -1 0 -1 0 -1 0 0 0 0 0 -1 0 0 0 -1 0 -1 0 -1 0 0 0 -1 -1 0 0 -1 0 0 0 -1 0 -1 0 0 0 -1 0 0 0 -1 0 0 0 -1 0 0 0 -1 0 0 0 -1 0 -1 0 0 -1 -1 0 0 0 0 0 -1 0 -1 0 0 0 -1 0 0 0 -1 0 0 -1 -1 0 -1 0 -1 0 0 0 -1 0 0 -1 -1 0 0 0 -2 0 0 0 -1 0 0 -1 -1 0 0 0 -1 0 -1 -1 -1 0 0 0 -1 0 0 -1 -1 0 0 0 -1 0 0 -1 -2 0 0 0 -1 0 0 -1 -1 0 0 0 -1 0 0 0 0 -1 -1 0 -1 0 0 0 0 -1 -1 0 -1 0 0 0 -1 -1 0 0 -1 0 0 0 -1 -1 0 0 -1 -1 -1 0 0 0 -1 0 0 -1 -1 0 0 -1 -1 0 0 0 -1 -1 0 0 -1 0 -1 -1 -1 0 0 -1 -1 0 0 -1 -1 0 0 -1 -1 0 0 -1 -1 0 0 0 -2 0 0 -1 -1c-21,-25 -55,-46 -81,-54l-1 0 0 0 0 0 -1 0 0 0 -1 -1 -1 0 0 0 -1 0 0 0 -1 0 0 0 -1 0 0 0 -1 -1 0 0 -1 0 0 0 0 0 -1 0 0 0 0 0 -1 0 0 0 -1 0 0 0 0 0 -1 0 0 0 -1 -1 0 0 -1 0 0 0 -1 0 0 0 -1 0 0 0 -1 0 0 0 0 0 -1 0 0 0 -1 0 0 0 -1 0 0 0 0 0 -1 0 0 0 0 0 -1 0 0 0 -1 0 -1 0 0 0 0 1 -1 0 -1 0 0 0 0 0 0 0 -1 0 0 0 -1 0 0 0 0 0 -1 0 0 0 -1 1 0 0c-2,0 -4,1 -6,2l0 0 -1 0 0 0c-1,1 -1,1 -2,1l0 0 -1 1 0 0c-1,1 -2,1 -3,2 -6,4 -11,9 -17,16zm-946 102c-51,55 -66,96 -60,165 7,68 35,164 92,233 56,68 142,110 234,112 93,3 193,-34 260,-103 67,-68 101,-168 46,-273 -56,-105 -201,-215 -317,-236 -117,-21 -204,47 -255,102zm176 139c-17,18 -22,32 -20,55 2,23 12,55 31,78 19,23 47,37 78,37 31,1 64,-11 87,-34 22,-23 34,-56 15,-91 -18,-36 -67,-73 -106,-80 -39,-7 -68,16 -85,35zm-1562 2156c-24,112 -47,246 -19,396 28,149 107,313 240,379 132,65 317,34 414,-110 24,-35 42,-77 56,-123 34,12 70,22 107,31 36,118 112,242 224,286 115,45 267,5 337,-122 28,-51 43,-115 47,-184 12,-4 24,-7 36,-11l0 0 5 -2 0 0c259,-86 595,-316 840,-600 34,-40 67,-82 98,-124 15,12 32,23 50,33 94,51 218,82 313,40 95,-43 161,-157 126,-274 -26,-90 -112,-182 -210,-249 10,-11 20,-23 29,-35 44,-58 77,-128 106,-207 29,-77 54,-163 74,-249 20,-89 35,-178 44,-260 9,-83 11,-159 7,-231 -3,-72 -13,-140 -28,-204 -14,-64 -34,-127 -59,-187 -24,-59 -54,-116 -88,-169 -32,-49 -67,-95 -105,-138 -42,-48 -88,-93 -133,-133 -42,-38 -83,-71 -123,-100 -38,-27 -75,-50 -113,-70 2,-37 -4,-73 -20,-107 -26,-56 -79,-106 -140,-139 -61,-32 -129,-46 -191,-35 -62,10 -119,46 -147,88 -27,38 -29,82 -35,120 -46,7 -97,16 -151,32 -50,14 -102,34 -155,61 -28,-48 -79,-89 -132,-110 -80,-31 -166,-15 -236,17 -69,32 -122,79 -157,133 -35,54 -51,115 -31,182 21,68 79,141 147,177 6,3 13,6 19,9 -34,74 -59,156 -73,246 -3,21 -6,42 -8,65 -44,20 -103,46 -180,79 -153,65 -334,216 -484,416 -127,171 -234,378 -284,599 -46,203 -46,418 28,629 -19,46 -32,97 -45,155zm716 412c12,-115 3,-240 -23,-349 -48,-202 -151,-351 -264,-401 -103,-46 -213,-9 -287,51 -37,-157 -32,-316 2,-467 47,-204 144,-394 262,-551 136,-181 296,-317 431,-374 48,-21 89,-39 124,-55 2,36 5,72 9,109 16,122 50,255 103,383 48,116 112,229 192,327 82,99 179,183 285,251 113,72 234,126 352,158 112,31 222,44 321,41 69,-1 134,-11 193,-26 -55,119 -134,236 -228,345 -231,268 -543,483 -782,562l0 0 -5 2 0 0c-140,46 -300,61 -449,47 -85,-8 -166,-26 -236,-53zm1463 -2435c27,-6 55,-9 76,-8 22,1 38,7 48,18l0 0c11,10 16,24 19,40l-1 0c3,17 2,36 -3,56 -5,16 -13,31 -27,45 -14,15 -35,27 -58,35 -22,7 -47,10 -70,8 -24,-3 -46,-11 -65,-23 -20,-12 -35,-28 -42,-45 -8,-19 -7,-38 3,-56 10,-16 26,-31 48,-43 20,-12 46,-21 72,-27zm-354 765c3,-32 7,-66 14,-103 6,-37 16,-78 33,-120 18,-43 44,-85 84,-123 34,-32 79,-61 127,-85 57,-29 121,-52 178,-69 53,-16 101,-28 145,-33 46,-6 88,-6 126,2 38,7 71,22 99,43 30,21 54,48 72,79 18,30 31,62 38,99 8,36 10,76 7,122 -4,44 -12,93 -24,143 -13,50 -30,102 -49,151 -20,49 -42,95 -69,137 -28,43 -60,81 -98,113 -38,31 -81,56 -127,75l0 0c-48,20 -99,33 -150,40 -50,6 -98,5 -143,-2 -45,-7 -87,-20 -122,-39 -31,-18 -56,-39 -76,-64l0 0 0 0 0 0 0 0 0 0 -1 0 0 0 0 0 0 0 0 0 0 -1 0 0 0 0 0 0 0 0 0 0 0 0 0 0 0 0 0 0 -1 0 0 0 0 0 0 -1 0 0 0 0 0 0 0 0 0 0 0 0 0 0 0 0 0 0 0 0 0 0 0 -1 -1 0 0 0 0 0 0 0 0 0 0 0 0 0 0 0 0 0 0 0 0 0 0 -1 0 0 0 0 0 0 0 0 -1 0 0 0 0 0 0 0 0 0 0 0 0 0 0 -1 0 0 0 0 0 0 0 0 0 0 0 0 0 0 -1 -1 0 0 -1 0 0 -1 0 0 0 -1 -1 0 0 0 -1 -1 0 0 0 0 0 -1 0 0 -1 -1 0 0 0 0 -1 -1 0 0 0 0 0 -1 -1 0 0 -1 0 0 -1 -1 0 0 0 0 0 -1 -1 0 0 0 0 -1 0 0 -1 -1 0 0 0 0 -1 -1 0 0 0 0 0 -1 -1 0 0 -1 0 0 0 0 -1 -1 0 0 0 0 0 -1 -1 -1 0 0 -1 -2 -1 0 0 -1 0 0 0 0 -1 -1 0 -1 -1 -1 0 -1 0 0 -1 0 0 -1 0 0 0 0 -1 -1 0 0 0 -1 0 0 -1 0 0 -1 0 0 0 -1 -1 0 0 -1 0 0 0 0 -1 -1 0 0 0 0 0 -1 -1 0c-11,-20 -20,-41 -26,-62 -10,-30 -14,-60 -16,-90 -2,-28 -1,-57 0,-86 1,-29 2,-58 5,-89zm98 266c11,-5 23,-9 36,-12 54,-10 107,13 134,54 19,-29 50,-51 88,-58 46,-9 91,6 120,36 16,-39 53,-70 99,-79 23,-4 45,-2 65,4 11,-48 51,-87 105,-97 6,-1 11,-2 17,-2 -15,35 -32,68 -52,98 -23,36 -50,69 -82,95 -31,26 -66,46 -104,62l0 0c-41,17 -84,28 -126,33 -41,5 -81,4 -118,-1 -35,-5 -67,-15 -93,-30 -24,-13 -43,-31 -59,-50 -13,-17 -23,-34 -30,-53zm710 -637c-16,10 -33,16 -52,19 -45,7 -88,-8 -116,-37 -16,41 -55,73 -104,81 -37,6 -73,-4 -100,-23 -14,44 -54,80 -106,88 -27,4 -53,0 -76,-9 -8,51 -52,95 -110,104 -13,2 -26,2 -38,0 5,-18 10,-35 18,-53 14,-34 35,-68 66,-97 28,-27 65,-51 106,-71 53,-27 111,-48 164,-64 47,-14 90,-25 129,-30 37,-4 69,-4 96,1 26,6 49,16 68,30 21,15 39,35 53,59 1,0 1,1 2,2z"/>
   </g>
  </g>
 </g>
</svg>
