<?xml version="1.0" encoding="utf-8"?>
<!-- Generator: Adobe Illustrator 19.1.0, SVG Export Plug-In . SVG Version: 6.00 Build 0)  -->
<svg version="1.1" id="Layer_1" xmlns="http://www.w3.org/2000/svg" xmlns:xlink="http://www.w3.org/1999/xlink" x="0px" y="0px"
	 viewBox="0 0 181.9 182" style="enable-background:new 0 0 181.9 182;" xml:space="preserve">
<style type="text/css">
	.st0{fill:#454545;}
</style>
<path class="st0" d="M91,0C40.7,0,0,40.8,0,91s40.8,91,91,91c50.3,0,91-40.8,91-91S141.2,0,91,0z M85.1,67.2l-10.2,35.9l-0.1,0.1
	l-2.5,8.8l-1,3.6h13.8v12H67.9l-1,3.5l-0.1,0.2l-7.1,25.3H46.5L85.1,25.4V67.2z M97,156.6v-41.1l12.8-44.9h-0.1l1-3.6H97V55.1h17.2
	l3.1-11l5.1-18h13L97,156.6z"/>
</svg>
