<?xml version="1.0" encoding="utf-8"?>
<!-- Generator: Adobe Illustrator 19.1.0, SVG Export Plug-In . SVG Version: 6.00 Build 0)  -->
<svg version="1.1" id="Layer_1" xmlns="http://www.w3.org/2000/svg" xmlns:xlink="http://www.w3.org/1999/xlink" x="0px" y="0px"
	 viewBox="0 0 519.6 182" style="enable-background:new 0 0 519.6 182;" xml:space="preserve">
<style type="text/css">
	.st0{fill:#FFFFFF;}
</style>
<g>
	<g>
		<g>
			<path class="st0" d="M233.2,107.9H219l-2.9-10.7h-4.2L225,143h2.1l13.2-45.7h-4.1L233.2,107.9L233.2,107.9z M220.1,111.9h12
				l-5.9,21.1l-0.1,1.7l-0.1-1.7L220.1,111.9z"/>
			<polygon class="st0" points="256.9,101.2 256.9,143 252.9,143 252.9,101.2 242.3,101.2 242.3,97.3 267.6,97.3 267.6,101.2 			"/>
			<polygon class="st0" points="284.8,101.2 284.8,143 280.8,143 280.8,101.2 270.2,101.2 270.2,97.3 295.5,97.3 295.5,101.2 			"/>
			<rect x="301.9" y="97.3" class="st0" width="4" height="45.7"/>
			<path class="st0" d="M340.6,132.4c0,1.6-0.3,3-0.9,4.4c-0.6,1.4-1.4,2.5-2.4,3.6c-1,1-2.2,1.8-3.5,2.4c-1.3,0.6-2.7,0.9-4.3,0.9
				h-3.2c-1.5,0-2.9-0.3-4.3-0.9c-1.3-0.6-2.5-1.4-3.5-2.4c-1-1-1.8-2.2-2.3-3.6c-0.6-1.4-0.9-2.8-0.9-4.4v-24.6
				c0-1.5,0.3-3,0.9-4.4c0.6-1.4,1.4-2.5,2.3-3.6c1-1,2.2-1.8,3.5-2.4c1.3-0.6,2.8-0.9,4.3-0.9h3.2c1.5,0,2.9,0.3,4.3,0.9
				c1.3,0.6,2.5,1.4,3.5,2.4c1,1,1.8,2.2,2.4,3.6c0.6,1.4,0.9,2.8,0.9,4.4v1.9l-4,0.6v-2.5c0-1-0.2-2-0.6-2.9
				c-0.4-0.9-0.9-1.7-1.5-2.3c-0.6-0.7-1.4-1.2-2.3-1.6c-0.9-0.4-1.8-0.6-2.8-0.6h-2.8c-1,0-1.9,0.2-2.8,0.6
				c-0.9,0.4-1.6,0.9-2.3,1.6c-0.7,0.7-1.2,1.4-1.5,2.3c-0.4,0.9-0.6,1.8-0.6,2.9v24.6c0,1,0.2,2,0.6,2.9c0.4,0.9,0.9,1.7,1.5,2.3
				c0.6,0.7,1.4,1.2,2.3,1.6c0.9,0.4,1.8,0.6,2.8,0.6h2.8c1,0,1.9-0.2,2.8-0.6c0.9-0.4,1.6-0.9,2.3-1.6c0.6-0.7,1.1-1.4,1.5-2.3
				c0.4-0.9,0.6-1.8,0.6-2.9v-2.5l4,0.7V132.4z"/>
		</g>
		<g>
			<path class="st0" d="M233.2,74.1H219l-2.9,10.7h-4.2L225,39h2.1l13.2,45.7h-4.1L233.2,74.1L233.2,74.1z M220.1,70.1h12l-5.9-21.1
				l-0.1-1.7l-0.1,1.7L220.1,70.1z"/>
			<path class="st0" d="M270.5,74.1c0,1.6-0.3,3-0.9,4.4c-0.6,1.4-1.4,2.5-2.4,3.6c-1,1-2.2,1.8-3.5,2.4c-1.3,0.6-2.7,0.9-4.3,0.9
				h-3.2c-1.5,0-2.9-0.3-4.3-0.9c-1.3-0.6-2.5-1.4-3.5-2.4c-1-1-1.8-2.2-2.3-3.6c-0.6-1.4-0.9-2.8-0.9-4.4V49.6c0-1.5,0.3-3,0.9-4.4
				c0.6-1.4,1.4-2.5,2.3-3.6c1-1,2.2-1.8,3.5-2.4c1.3-0.6,2.8-0.9,4.3-0.9h3.2c1.5,0,2.9,0.3,4.3,0.9c1.3,0.6,2.5,1.4,3.5,2.4
				c1,1,1.8,2.2,2.4,3.6c0.6,1.4,0.9,2.8,0.9,4.4v1.8l-4,0.6v-2.5c0-1-0.2-2-0.6-2.9c-0.4-0.9-0.9-1.7-1.5-2.3
				c-0.6-0.7-1.4-1.2-2.3-1.6c-0.9-0.4-1.8-0.6-2.8-0.6h-2.8c-1,0-1.9,0.2-2.8,0.6c-0.9,0.4-1.6,0.9-2.3,1.6
				c-0.7,0.7-1.2,1.4-1.5,2.3c-0.4,0.9-0.6,1.8-0.6,2.9v24.5c0,1,0.2,2,0.6,2.9c0.4,0.9,0.9,1.7,1.5,2.3c0.6,0.7,1.4,1.2,2.3,1.6
				c0.9,0.4,1.8,0.6,2.8,0.6h2.8c1,0,1.9-0.2,2.8-0.6c0.9-0.4,1.6-0.9,2.3-1.6c0.6-0.7,1.1-1.4,1.5-2.3c0.4-0.9,0.6-1.8,0.6-2.9
				v-2.5l4,0.7V74.1z"/>
			<polygon class="st0" points="300.6,84.7 300.6,63.8 283.5,63.8 283.5,84.7 279.4,84.7 279.4,39 283.5,39 283.5,59.9 300.6,59.9 
				300.6,39 304.6,39 304.6,84.7 			"/>
			<path class="st0" d="M335.8,84.7l-12.1-19.5h-5.5v19.5h-4V39h14.2c1.5,0,2.9,0.3,4.3,0.9c1.3,0.6,2.5,1.4,3.5,2.4
				c1,1,1.8,2.2,2.4,3.6c0.6,1.4,0.9,2.8,0.9,4.4V54c0,1.5-0.3,3-0.9,4.4c-0.6,1.4-1.4,2.6-2.4,3.6c-1,1-2.2,1.8-3.5,2.4
				c-1.3,0.6-2.7,0.9-4.3,0.9l12.1,19.5H335.8L335.8,84.7z M335.3,50.3c0-1-0.2-2-0.6-2.9c-0.4-0.9-0.9-1.7-1.5-2.3
				c-0.6-0.7-1.4-1.2-2.3-1.6c-0.9-0.4-1.8-0.6-2.8-0.6h-10v18.4h10c1,0,1.9-0.2,2.8-0.6c0.9-0.4,1.6-0.9,2.3-1.6
				c0.6-0.7,1.1-1.4,1.5-2.3c0.4-0.9,0.6-1.8,0.6-2.9V50.3z"/>
			<path class="st0" d="M374,74.1c0,1.6-0.3,3-0.9,4.4c-0.6,1.4-1.4,2.5-2.4,3.6c-1,1-2.2,1.8-3.5,2.4c-1.3,0.6-2.7,0.9-4.3,0.9
				h-3.2c-1.5,0-2.9-0.3-4.3-0.9c-1.3-0.6-2.5-1.4-3.5-2.4c-1-1-1.8-2.2-2.3-3.6c-0.6-1.4-0.9-2.8-0.9-4.4V49.6c0-1.5,0.3-3,0.9-4.4
				c0.6-1.4,1.4-2.5,2.3-3.6c1-1,2.2-1.8,3.5-2.4c1.3-0.6,2.8-0.9,4.3-0.9h3.2c1.5,0,2.9,0.3,4.3,0.9c1.3,0.6,2.5,1.4,3.5,2.4
				c1,1,1.8,2.2,2.4,3.6c0.6,1.4,0.9,2.8,0.9,4.4V74.1L374,74.1z M370,49.6c0-1-0.2-2-0.6-2.9c-0.4-0.9-0.9-1.7-1.5-2.3
				c-0.6-0.7-1.4-1.2-2.3-1.6c-0.9-0.4-1.8-0.6-2.8-0.6h-2.8c-1,0-1.9,0.2-2.8,0.6c-0.9,0.4-1.6,0.9-2.3,1.6
				c-0.7,0.7-1.2,1.4-1.5,2.3c-0.4,0.9-0.6,1.8-0.6,2.9v24.5c0,1,0.2,2,0.6,2.9c0.4,0.9,0.9,1.7,1.5,2.3c0.6,0.7,1.4,1.2,2.3,1.6
				c0.9,0.4,1.8,0.6,2.8,0.6h2.8c1,0,1.9-0.2,2.8-0.6c0.9-0.4,1.6-0.9,2.3-1.6c0.6-0.7,1.1-1.4,1.5-2.3c0.4-0.9,0.6-1.8,0.6-2.9
				V49.6z"/>
			<polygon class="st0" points="411.1,84.7 411.1,53.4 410.8,55.3 400.5,84.7 398.3,84.7 387.9,55.3 387.6,53.4 387.6,84.7 
				383.6,84.7 383.6,39 385.7,39 399.2,76.5 399.4,78.2 399.5,76.5 413,39 415.1,39 415.1,84.7 			"/>
			<path class="st0" d="M442.1,74.1h-14.1L425,84.7h-4.2L433.9,39h2.1l13.2,45.7H445L442.1,74.1L442.1,74.1z M429,70.1h12l-5.9-21.1
				l-0.1-1.7l-0.1,1.7L429,70.1z"/>
			<rect x="480.9" y="39" class="st0" width="4" height="45.7"/>
			<path class="st0" d="M519.6,74.1c0,1.6-0.3,3-0.9,4.4c-0.6,1.4-1.4,2.5-2.4,3.6c-1,1-2.2,1.8-3.5,2.4c-1.3,0.6-2.7,0.9-4.3,0.9
				h-3.2c-1.5,0-2.9-0.3-4.3-0.9c-1.3-0.6-2.5-1.4-3.5-2.4c-1-1-1.8-2.2-2.3-3.6c-0.6-1.4-0.9-2.8-0.9-4.4V49.6c0-1.5,0.3-3,0.9-4.4
				c0.6-1.4,1.4-2.5,2.3-3.6c1-1,2.2-1.8,3.5-2.4c1.3-0.6,2.8-0.9,4.3-0.9h3.2c1.5,0,2.9,0.3,4.3,0.9c1.3,0.6,2.5,1.4,3.5,2.4
				c1,1,1.8,2.2,2.4,3.6c0.6,1.4,0.9,2.8,0.9,4.4v1.9l-4,0.6v-2.5c0-1-0.2-2-0.6-2.9c-0.4-0.9-0.9-1.7-1.5-2.3
				c-0.6-0.7-1.4-1.2-2.3-1.6c-0.9-0.4-1.8-0.6-2.8-0.6h-2.8c-1,0-1.9,0.2-2.8,0.6c-0.9,0.4-1.6,0.9-2.3,1.6
				c-0.7,0.7-1.2,1.4-1.5,2.3c-0.4,0.9-0.6,1.8-0.6,2.9v24.5c0,1,0.2,2,0.6,2.9c0.4,0.9,0.9,1.7,1.5,2.3c0.6,0.7,1.4,1.2,2.3,1.6
				c0.9,0.4,1.8,0.6,2.8,0.6h2.8c1,0,1.9-0.2,2.8-0.6c0.9-0.4,1.6-0.9,2.3-1.6c0.6-0.7,1.1-1.4,1.5-2.3c0.4-0.9,0.6-1.8,0.6-2.9
				v-2.5l4,0.7V74.1z"/>
			<polygon class="st0" points="463.9,42.9 463.9,84.7 459.8,84.7 459.8,42.9 449.2,42.9 449.2,39 474.5,39 474.5,42.9 			"/>
		</g>
	</g>
	<path class="st0" d="M91,0C40.7,0,0,40.8,0,91s40.8,91,91,91c50.3,0,91-40.8,91-91S141.2,0,91,0z M85.1,67.2l-10.2,35.9l-0.1,0.1
		l-2.5,8.8l-1,3.6h13.8v12H67.9l-1,3.5l-0.1,0.2l-7.1,25.3H46.5L85.1,25.4V67.2z M97,156.6v-41.1l12.8-44.9h-0.1l1-3.6H97V55.1h17.2
		l3.1-11l5.1-18h13L97,156.6z"/>
</g>
</svg>
